<svg xmlns="http://www.w3.org/2000/svg" version="1.1" xmlns:xlink="http://www.w3.org/1999/xlink" xmlns:svgjs="http://svgjs.com/svgjs" width="512" height="512" x="0" y="0" viewBox="0 0 512 512" style="enable-background:new 0 0 512 512" xml:space="preserve" class=""><g><g xmlns="http://www.w3.org/2000/svg" id="_x31_1_Compass"><g><path d="m283.285 416.956c-4.389 9.874-8.452 19.83-12.19 29.786-2.398 6.38-8.289 10.443-15.075 10.443s-12.718-4.103-15.116-10.443c-3.304-8.676-5.888-16.299-11.621-29.825-52.133 4.957-91.02 24.096-91.02 46.892 0 26.574 52.661 48.192 117.717 48.192s117.758-21.618 117.758-48.192c-.001-22.716-38.563-41.814-90.453-46.853z" fill="#ffffff" data-original="#000000" class=""></path><path d="m249.518.132c-80.212 3.291-145.552 68.347-149.087 148.558-1.869 41.609 12.678 79.765 37.668 108.737 83.614 96.908 106.683 178.793 110.403 186.429 1.301 3.494 4.389 5.201 7.517 5.201 3.088 0 6.177-1.707 7.477-5.16 25.884-68.956 64.811-131.858 112.028-188.38 22.552-27.062 36.205-61.805 36.205-99.797 0-88.135-73.263-159.205-162.211-155.588zm6.501 271.679c-64.162 0-116.132-51.971-116.132-116.091 0-64.121 51.971-116.091 116.132-116.091 64.121 0 116.091 51.97 116.091 116.091.002 64.12-51.97 116.091-116.091 116.091z" fill="#ffffff" data-original="#000000" class=""></path><path d="m288.577 136.884c16.417 0 29.719-13.301 29.719-29.658 0-16.417-13.301-29.719-29.719-29.719-16.358 0-29.659 13.302-29.659 29.719 0 1.242.101 2.458.25 3.659l-39.064 19.614c-5.34-5.124-12.574-8.289-20.56-8.289-16.358 0-29.659 13.302-29.659 29.719 0 16.357 13.301 29.658 29.659 29.658 6.891 0 13.216-2.365 18.256-6.295l34.911 22.286c-.5 2.161-.79 4.403-.79 6.717 0 16.358 13.301 29.658 29.659 29.658 16.417 0 29.719-13.301 29.719-29.658 0-16.417-13.301-29.719-29.719-29.719-6.862 0-13.169 2.363-18.2 6.293l-34.899-22.279c.494-2.145.782-4.368.782-6.661 0-1.262-.104-2.497-.257-3.717l39.061-19.612c5.332 5.118 12.551 8.284 20.51 8.284z" fill="#ffffff" data-original="#000000" class=""></path></g></g></g></svg>