<svg width="22" height="22" viewBox="0 0 22 22" fill="none" xmlns="http://www.w3.org/2000/svg">
<path d="M18.5 12.5758V10.1825C18.4976 8.33044 17.8045 6.54589 16.5561 5.17773C15.3078 3.80957 13.5941 2.95619 11.75 2.78443V1.25C11.75 1.05109 11.671 0.860322 11.5304 0.71967C11.3897 0.579018 11.199 0.5 11 0.5C10.8011 0.5 10.6104 0.579018 10.4697 0.71967C10.3291 0.860322 10.25 1.05109 10.25 1.25V2.78458C8.40599 2.95633 6.6923 3.8097 5.444 5.17782C4.19569 6.54595 3.50254 8.33047 3.50005 10.1825V12.5757C2.65367 12.7496 1.89315 13.2101 1.34668 13.8794C0.800205 14.5487 0.501194 15.3859 0.500046 16.25C0.500701 16.8465 0.737964 17.4185 1.15978 17.8403C1.58159 18.2621 2.15351 18.4993 2.75005 18.5H7.32587C7.4988 19.3468 7.95894 20.1079 8.62845 20.6545C9.29796 21.2011 10.1357 21.4997 11 21.4997C11.8644 21.4997 12.7021 21.2011 13.3716 20.6545C14.0412 20.1079 14.5013 19.3468 14.6742 18.5H19.25C19.8466 18.4993 20.4185 18.2621 20.8403 17.8403C21.2621 17.4185 21.4994 16.8465 21.5 16.25C21.4989 15.386 21.1998 14.5487 20.6534 13.8795C20.1069 13.2102 19.3464 12.7498 18.5 12.5758ZM5.00005 10.1825C5.00203 8.60971 5.6277 7.10191 6.73983 5.98978C7.85196 4.87765 9.35976 4.25198 10.9325 4.25H11.0675C12.6403 4.25198 14.1481 4.87765 15.2603 5.98978C16.3724 7.10191 16.9981 8.60971 17 10.1825V12.5H5.00005V10.1825ZM11 20C10.5363 19.9986 10.0843 19.8536 9.70617 19.5851C9.32806 19.3165 9.04235 18.9375 8.88827 18.5H13.1118C12.9577 18.9375 12.672 19.3165 12.2939 19.5851C11.9158 19.8536 11.4638 19.9986 11 20ZM19.25 17H2.75005C2.55117 16.9999 2.36047 16.9208 2.21985 16.7802C2.07922 16.6396 2.00016 16.4489 2.00005 16.25C2.0007 15.6535 2.23796 15.0815 2.65978 14.6597C3.08159 14.2379 3.65351 14.0007 4.25005 14H17.75C18.3466 14.0007 18.9185 14.2379 19.3403 14.6597C19.7621 15.0815 19.9994 15.6535 20 16.25C19.9999 16.4489 19.9209 16.6396 19.7802 16.7802C19.6396 16.9208 19.4489 16.9999 19.25 17Z" fill="#221F1F"/>
</svg>
